<svg width="720" height="720" viewBox="0 0 720 720" fill="none" xmlns="http://www.w3.org/2000/svg">
<rect width="720" height="720" rx="130" fill="#F45D48"/>
<path fill-rule="evenodd" clip-rule="evenodd" d="M430.851 319.17C430.864 375.247 431.089 378.157 436.17 387.93C438.891 393.165 445.54 399.722 450.794 402.355C463.073 408.505 482.621 405.43 494.425 395.491C498.116 392.384 498.116 392.384 490.166 382.704C482.218 373.024 482.218 373.024 477.074 375.745C470.293 379.33 465.1 379.303 461.709 375.666C458.049 371.737 457.708 368.927 457.708 342.693C457.708 319.449 457.708 319.449 473.382 319.449C489.057 319.449 489.057 319.449 489.057 307.757C489.057 296.065 489.057 296.065 473.382 296.065C457.708 296.065 457.708 296.065 457.708 281.032C457.708 266 457.708 266 444.273 266C430.837 266 430.837 266 430.851 319.17ZM152.181 295.527C138.497 299.348 124.611 309.643 117.993 320.875C101.184 349.4 111.799 385.288 141.284 399.623C159.433 408.446 177.702 407.747 190.907 397.723C196.057 393.814 196.057 393.814 195.309 400.141C193.877 412.256 188.94 420.059 179.858 424.561C172.87 428.024 162.514 428.485 155.391 425.65C152.89 424.655 150.683 424.028 150.488 424.258C150.292 424.488 147.24 429.595 143.707 435.608C136.266 448.268 136.129 447.817 148.697 452.187C158.848 455.718 175.409 455.612 185.084 451.954C203.082 445.149 216.307 430.939 220.874 413.502C222.305 408.039 222.591 397.724 222.591 351.507C222.591 296.065 222.591 296.065 209.155 296.065C195.72 296.065 195.72 296.065 195.72 299.962C195.72 302.106 195.435 303.86 195.085 303.86C194.737 303.86 192.847 302.656 190.887 301.185C184.638 296.497 178.877 294.735 168.29 294.279C161.484 293.985 156.255 294.39 152.181 295.527ZM368.085 295.282C361.463 297.152 355.734 300.728 351.284 305.77C346.276 311.443 344.356 316.673 344.351 324.656C344.344 338.392 352.196 347.579 373.639 358.926C380.645 362.634 387.378 366.999 388.6 368.628C393.043 374.548 387.726 381.353 378.825 381.141C374.09 381.027 364.048 376.602 361.443 373.48C357.59 368.862 356.509 369.274 348.003 378.598C339.846 387.539 339.846 387.539 344.756 392.526C361.632 409.671 393.533 410.082 408.344 393.346C414.217 386.713 416.73 379.103 416.008 370.154C414.838 355.651 408.283 348.351 386.037 336.773C372.594 329.775 370.899 328.571 370.578 325.785C369.54 316.784 382.636 316.09 392.649 324.614C397.447 328.699 397.447 328.699 405.997 320.196C414.547 311.692 414.547 311.692 409.537 306.602C402.057 299.003 392.772 294.861 381.968 294.3C376.732 294.029 371.118 294.426 368.085 295.282ZM541.799 295.043C533.68 296.628 523.013 302.276 516.313 308.537C503.617 320.401 498.014 332.902 498.014 349.361C498.014 374.77 512.11 394.329 536.73 403.081C545.821 406.313 560.726 406.335 570.788 403.132C603.993 392.561 619.855 353.933 603.514 323.43C601.849 320.322 597.206 314.477 593.195 310.441C579.635 296.8 561.153 291.262 541.799 295.043ZM240.523 329.749C240.545 366.186 241.365 373.636 246.454 383.624C250.41 391.388 259.847 399.85 267.963 402.911C277.293 406.43 292.068 406.447 301.523 402.949C310.72 399.546 320.901 389.38 324.385 380.119C328.483 369.226 328.953 363.993 328.953 329.319C328.953 296.065 328.953 296.065 315.637 296.065C302.32 296.065 302.32 296.065 301.785 330.305C301.195 368.056 300.748 370.899 294.558 376.305C291.394 379.067 289.86 379.579 284.729 379.579C279.534 379.579 278.077 379.079 274.718 376.147C272.556 374.258 270.194 370.876 269.467 368.63C268.622 366.014 267.974 352.243 267.664 330.305C267.18 296.065 267.18 296.065 253.842 296.065C240.504 296.065 240.504 296.065 240.523 329.749ZM178.379 323.815C188.501 328.22 194.886 338.385 194.799 349.955C194.565 381.072 152.615 389.621 139.591 361.206C137.239 356.073 136.893 346.778 138.817 340.391C140.33 335.369 147.458 326.824 152.147 324.413C160.141 320.301 169.8 320.081 178.379 323.815ZM566.899 324.329C572.642 326.945 576.623 331.064 580.192 338.081C587.115 351.698 579.851 369.859 564.927 376.245C560.248 378.247 557.69 378.629 551.788 378.209C543.17 377.595 538.677 375.526 532.732 369.434C522.214 358.656 522.569 339.133 533.458 329.415C538.973 324.492 540.549 323.564 545.94 322.062C552.589 320.21 559.49 320.956 566.899 324.329Z" fill="white"/>
</svg>
